<svg width="451" height="63" viewBox="0 0 451 63" fill="none" xmlns="http://www.w3.org/2000/svg">
<path d="M416.076 0.00195312L381.152 62.1191H395.471L416.076 25.47L436.681 62.1191H450.999L416.076 0.00195312Z" fill="#4F46E5"></path>
<path d="M373.951 62.1172H359.706L347.613 40.6299L358.44 34.5371L373.951 62.1172ZM378.673 46.4619L371.148 50.6963L365.056 39.8691L366.249 39.1982V12.4238H328.978V49.6934H347.599L348.815 49.0088L354.908 59.8359L350.854 62.1172H316.555V0H378.673V46.4619Z" fill="#4F46E5"></path>
<path d="M34.1929 12.4234H12.4522V24.8469H41.1742L48.1555 37.2703H12.4522V49.6938H55.1368L62.1181 62.1172H0V0H27.2115L34.1929 12.4234Z" fill="#4F46E5"></path>
<path d="M82.6212 36.6492L103.205 0H117.509L82.6214 62.1172L47.7336 0H62.0374L82.6212 36.6492Z" fill="#4F46E5"></path>
<path d="M165.1 12.4234H145.073L138.081 24.8469H165.1V37.2703H131.089L124.097 49.6938H165.1V62.1172H102.981L107.808 53.5287L107.713 53.4753L137.809 0L137.869 0.0336852L137.888 0H165.1V12.4234Z" fill="#4F46E5"></path>
<path fill-rule="evenodd" clip-rule="evenodd" d="M241.888 18.9235L223.414 29.3202L241.873 62.1172H227.617L212.588 35.4132L192.194 46.8904V62.1172H179.77V0H241.888V18.9235ZM192.194 32.6346L228.108 12.4234H192.194V32.6346Z" fill="#4F46E5"></path>
<path d="M273.112 18.6469V18.6375L279.322 29.692L296.002 0H310.304L285.532 44.0962V62.1172H273.112V44.1148L248.329 0H262.636L273.112 18.6469Z" fill="#4F46E5"></path>
</svg>